# Blender 4.2.0
# www.blender.org
mtllib untitled.mtl
o Plane
v 0.000000 4.139626 -0.000001
v 0.000000 0.000000 0.154615
v 0.000000 0.702356 -0.154063
v 0.000000 -0.000000 -0.154615
v 0.000000 0.702357 0.154063
v 0.000000 1.667165 -0.138471
v 0.000000 1.667165 0.138470
v 0.000000 2.679856 -0.109011
v 0.000000 3.464659 0.065819
v 0.000000 2.679856 0.109010
v 0.000000 3.464659 -0.065821
vn -1.0000 -0.0000 -0.0000
vt 0.000000 0.000000
vt 0.166667 1.000000
vt 0.000000 1.000000
vt 0.166667 0.000000
vt 0.333333 1.000000
vt 0.333333 0.000000
vt 0.500000 1.000000
vt 0.666667 0.000000
vt 0.500000 0.000000
vt 0.666667 1.000000
s 1
usemtl None
f 2/1/1 3/2/1 4/3/1
f 5/4/1 6/5/1 3/2/1
f 7/6/1 8/7/1 6/5/1
f 9/8/1 8/7/1 10/9/1
f 9/8/1 1/1/1 11/10/1
f 2/1/1 5/4/1 3/2/1
f 5/4/1 7/6/1 6/5/1
f 7/6/1 10/9/1 8/7/1
f 9/8/1 11/10/1 8/7/1
