# Blender 4.2.1 LTS
# www.blender.org
mtllib grass.mtl
o Plane
v 0.000000 5.000000 -0.000002
v 0.000000 0.000000 0.200000
v 0.000000 0.848333 -0.199287
v 0.000000 -0.000000 -0.200000
v 0.000000 0.848334 0.199285
v 0.000000 2.013666 -0.179117
v 0.000000 2.013666 0.179116
v 0.000000 3.236834 -0.141010
v 0.000000 4.184749 0.085138
v 0.000000 3.236834 0.141008
v 0.000000 4.184749 -0.085143
vn -1.0000 -0.0000 -0.0000
vt 0.000000 0.000000
vt 0.166667 1.000000
vt 0.000000 1.000000
vt 0.166667 0.000000
vt 0.333333 1.000000
vt 0.333333 0.000000
vt 0.500000 1.000000
vt 0.666667 0.000000
vt 0.500000 0.000000
vt 0.666667 1.000000
s 1
usemtl None
f 2/1/1 3/2/1 4/3/1
f 5/4/1 6/5/1 3/2/1
f 7/6/1 8/7/1 6/5/1
f 9/8/1 8/7/1 10/9/1
f 9/8/1 1/1/1 11/10/1
f 2/1/1 5/4/1 3/2/1
f 5/4/1 7/6/1 6/5/1
f 7/6/1 10/9/1 8/7/1
f 9/8/1 11/10/1 8/7/1
